<svg xmlns:xlink="http://www.w3.org/1999/xlink" viewBox="0 0 24.3965 29.9991" fill="none" xmlns="http://www.w3.org/2000/svg" data-slot="token-shield" class="absolute pointer-events-none h-3! w-2.5! left-3 top-2" style="color: rgb(255, 210, 8); --token-shield-fill: #FFD208;" width="24.3965"  height="29.9991" ><defs><linearGradient id="shield-gradient" x1="1" y1="15" x2="23.3962" y2="15" gradientUnits="userSpaceOnUse"><stop></stop><stop offset="1" stop-opacity="0"></stop></linearGradient><linearGradient id="shield-gradient" x1="1" y1="15" x2="23.3962" y2="15" gradientUnits="userSpaceOnUse"><stop></stop><stop offset="1" stop-opacity="0"></stop></linearGradient><linearGradient id="shield-gradient" x1="1" y1="15" x2="23.3962" y2="15" gradientUnits="userSpaceOnUse"><stop></stop><stop offset="1" stop-opacity="0"></stop></linearGradient></defs><path d="M23.3962 16.398C23.3962 23.3969 18.4971 26.8963 12.674 28.926C12.3691 29.0293 12.0379 29.0243 11.7362 28.912C5.89918 26.8963 1 23.3969 1 16.398V6.59969C1 6.22845 1.14748 5.87242 1.40998 5.60991C1.67249 5.3474 2.02852 5.19993 2.39976 5.19993C5.19929 5.19993 8.69871 3.52021 11.1343 1.39256C11.4308 1.1392 11.8081 1 12.1981 1C12.5882 1 12.9654 1.1392 13.2619 1.39256C15.7115 3.5342 19.1969 5.19993 21.9965 5.19993C22.3677 5.19993 22.7237 5.3474 22.9863 5.60991C23.2488 5.87242 23.3962 6.22845 23.3962 6.59969V16.398Z" fill="#FFD208"></path><mask id="shield-mask" maskUnits="userSpaceOnUse" x="1" y="1" width="23" height="28" style="mask-type: alpha;" fill="none"><path d="M23.3962 16.398C23.3962 23.3969 18.4971 26.8963 12.674 28.926C12.3691 29.0293 12.0379 29.0243 11.7362 28.912C5.89918 26.8963 1 23.3969 1 16.398V6.59969C1 6.22845 1.14748 5.87242 1.40998 5.60991C1.67249 5.3474 2.02852 5.19993 2.39976 5.19993C5.19929 5.19993 8.69871 3.52021 11.1343 1.39256C11.4308 1.1392 11.8081 1 12.1981 1C12.5882 1 12.9654 1.1392 13.2619 1.39256C15.7115 3.5342 19.1969 5.19993 21.9965 5.19993C22.3677 5.19993 22.7237 5.3474 22.9863 5.60991C23.2488 5.87242 23.3962 6.22845 23.3962 6.59969V16.398Z" fill="url(&quot;#shield-gradient&quot;)"></path></mask><g mask="url(#shield-mask)" fill="none"><path d="M23.3962 16.398C23.3962 23.3969 18.4971 26.8963 12.674 28.926C12.3691 29.0293 12.0379 29.0243 11.7362 28.912C5.89918 26.8963 1 23.3969 1 16.398V6.59969C1 6.22845 1.14748 5.87242 1.40998 5.60991C1.67249 5.3474 2.02852 5.19993 2.39976 5.19993C5.19929 5.19993 8.69871 3.52021 11.1343 1.39256C11.4308 1.1392 11.8081 1 12.1981 1C12.5882 1 12.9654 1.1392 13.2619 1.39256C15.7115 3.5342 19.1969 5.19993 21.9965 5.19993C22.3677 5.19993 22.7237 5.3474 22.9863 5.60991C23.2488 5.87242 23.3962 6.22845 23.3962 6.59969V16.398Z" fill="#FFD208"></path></g><path d="M22.3965 6.59961C22.3965 6.49374 22.3541 6.39231 22.2793 6.31738C22.2043 6.24241 22.1021 6.2002 21.9961 6.2002C18.8771 6.20005 15.172 4.38716 12.6123 2.15234C12.4969 2.05387 12.35 2.00003 12.1982 2C12.0464 2 11.8997 2.05466 11.7842 2.15332L11.7832 2.15234C9.23832 4.37234 5.51912 6.2002 2.39941 6.2002C2.29352 6.20029 2.19208 6.24249 2.11719 6.31738C2.04232 6.39232 2.00002 6.49368 2 6.59961V16.3984C2.00009 19.6336 3.12049 22.0083 4.89453 23.8252C6.58336 25.5548 8.90443 26.8174 11.5332 27.7783L12.0625 27.9668L12.085 27.9746C12.1704 28.0064 12.2641 28.0073 12.3506 27.9785C15.1881 26.9888 17.704 25.6728 19.5029 23.8271C21.2757 22.0082 22.3964 19.6334 22.3965 16.3984V6.59961ZM17.1035 10.8926C17.5 10.5081 18.1331 10.5176 18.5176 10.9141C18.9019 11.3106 18.8915 11.9437 18.4951 12.3281L11.2012 19.4014C10.8133 19.7775 10.1965 19.7775 9.80859 19.4014L6.49316 16.1865C6.09668 15.8021 6.08721 15.1689 6.47168 14.7725C6.85614 14.376 7.48927 14.3656 7.88574 14.75L10.5049 17.29L17.1035 10.8926ZM24.3965 16.3984C24.3964 20.1618 23.0668 23.036 20.9346 25.2236C18.8295 27.3833 15.9858 28.8304 13.0029 29.8701L12.9951 29.873C12.4799 30.0476 11.9214 30.0401 11.4102 29.8555V29.8574C8.41944 28.8247 5.57133 27.3809 3.46387 25.2227C1.32923 23.0364 9.13742e-05 20.1617 0 16.3984V6.59961C2.17195e-05 5.96318 0.253102 5.35237 0.703125 4.90234C1.15305 4.45261 1.76325 4.20029 2.39941 4.2002C4.87533 4.2002 8.15048 2.67163 10.4766 0.639648L10.4844 0.631836C10.962 0.22378 11.57 0 12.1982 0C12.7479 2.58125e-05 13.2817 0.171938 13.7266 0.488281L13.9111 0.631836L13.9199 0.639648C16.2589 2.68459 19.5195 4.20004 21.9961 4.2002C22.6324 4.2002 23.2433 4.45244 23.6934 4.90234C24.1434 5.35237 24.3965 5.96318 24.3965 6.59961V16.3984Z" fill="#FFFFFF"></path></svg>