<svg xmlns:xlink="http://www.w3.org/1999/xlink" viewBox="0 0 50 50" fill="none" xmlns="http://www.w3.org/2000/svg" class="absolute inset-0 size-full rounded-full object-cover" width="50"  height="50" ><path d="M50 25C50 38.8071 38.8071 50 25 50C11.1929 50 0 38.8071 0 25C0 11.1929 11.1929 0 25 0C38.8071 0 50 11.1929 50 25Z" fill="black"></path><g transform="translate(19.455 12.195)" fill="none"><path d="M12.575 0.141538C12.6322 0.151786 12.6322 0.151787 12.6907 0.162133C14.3868 0.467644 15.9577 1.25953 17.2003 2.45424C17.1811 2.60133 17.1076 2.66741 17.0036 2.76873C16.9706 2.80123 16.9376 2.83364 16.9036 2.86712C16.8685 2.90118 16.8334 2.93515 16.7983 2.96912C16.5964 3.16629 16.3974 3.36218 16.2141 3.57682C16.0734 3.73631 15.9181 3.88233 15.7663 4.03138C15.6437 4.15261 15.5244 4.27442 15.4119 4.40521C15.2739 4.56578 15.1244 4.71346 14.9734 4.86172C14.8034 5.02882 14.639 5.19476 14.4902 5.38119C14.3616 5.34497 14.2811 5.28729 14.1852 5.19827C13.3328 4.4303 12.1928 4.11015 11.0709 4.10292C11.0457 4.10263 11.0205 4.10234 10.9946 4.10204C10.5178 4.09785 10.0673 4.16637 9.6142 4.32195C9.58726 4.33113 9.56042 4.34021 9.5327 4.34967C8.94706 4.55582 8.42447 4.875 7.94971 5.27274C7.91242 5.30271 7.91242 5.30271 7.87435 5.33336C7.16944 5.91695 6.72337 6.79541 6.46813 7.65768C6.44871 7.71878 6.44871 7.71878 6.42879 7.78105C6.38809 7.94132 6.37003 8.09847 6.3552 8.26294C6.35227 8.29612 6.34925 8.32931 6.34622 8.36347C6.24891 9.52783 6.50434 10.5124 7.08247 11.5242C11.3932 11.542 11.3932 11.542 15.791 11.5603C15.791 12.8959 15.791 14.2314 15.791 15.6074C13.5492 15.6074 11.3074 15.6074 8.99762 15.6074C9.03344 15.8936 9.06917 16.1798 9.10606 16.4746C9.11289 16.706 9.11895 16.9338 9.11621 17.1647C9.11504 17.2621 9.11475 17.3596 9.11446 17.457C9.1125 17.91 9.09318 18.351 9.00436 18.7963C8.99791 18.8292 8.99137 18.8621 8.98464 18.8961C8.96531 18.9924 8.9454 19.0885 8.92539 19.1848C8.92041 19.2096 8.91543 19.2344 8.91026 19.2598C8.75653 20.0137 8.43999 20.7412 8.09427 21.4252C8.07035 21.4729 8.04654 21.5205 8.02194 21.5697C11.8498 21.5697 15.6776 21.5697 19.6214 21.5697C19.6214 22.8934 19.6214 24.2169 19.6214 25.5807C13.1701 25.5807 6.71898 25.5807 0.0722283 25.5807C0.0722283 24.257 0.0722283 22.9335 0.0722283 21.5697C0.692326 21.5458 1.31243 21.522 1.95126 21.4974C2.41529 21.4195 2.41529 21.4195 2.84788 21.2739C2.87336 21.2629 2.89883 21.252 2.92509 21.2408C3.82659 20.8389 4.37602 19.9088 4.72194 19.0215C4.7643 18.908 4.80354 18.7938 4.84209 18.6789C4.85351 18.6464 4.86493 18.614 4.87665 18.5805C5.0255 18.1297 5.03731 17.6582 5.03633 17.1883C5.03633 17.1467 5.03633 17.1467 5.03643 17.1043C5.03584 16.6832 5.00256 16.3017 4.87821 15.8965C4.85439 15.8011 4.83048 15.7057 4.80598 15.6074C3.21996 15.6074 1.63404 15.6074 0 15.6074C0 14.2718 0 12.9363 0 11.5603C0.87046 11.5603 1.74102 11.5603 2.63783 11.5603C2.5901 11.3933 2.54247 11.2264 2.49328 11.0544C2.46585 10.9368 2.43979 10.8203 2.41656 10.702C2.4109 10.6753 2.40523 10.6486 2.39948 10.621C2.28713 10.0585 2.26302 9.49542 2.26312 8.92335C2.26292 8.81032 2.26165 8.69749 2.26029 8.58446C2.25648 7.90121 2.35077 7.23445 2.53398 6.5759C2.54462 6.53744 2.55516 6.49888 2.56609 6.45926C2.95066 5.11569 3.65392 3.88985 4.61047 2.87415C4.69793 2.78132 4.69793 2.78132 4.77318 2.68401C4.83516 2.60739 4.89558 2.54677 4.97084 2.48362C5.05429 2.41266 5.13599 2.34121 5.21544 2.26576C5.6453 1.85845 6.13812 1.52327 6.6488 1.22566C6.69116 1.19999 6.73343 1.17432 6.77579 1.14855C7.3751 0.791016 8.03502 0.534797 8.70509 0.343975C8.774 0.324161 8.84262 0.303273 8.91114 0.28219C10.0635 -0.0445989 11.4023 -0.0821778 12.575 0.141538Z" fill="#499BE5"></path></g><g transform="translate(10.885 15.3)" fill="none"><path d="M0.00441812 0C1.33998 0 2.67553 0 4.0516 0C4.0516 1.45474 4.0516 2.90957 4.0516 4.40843C4.53222 4.40784 4.53222 4.40784 5.0225 4.40716C5.2506 4.40696 5.47871 4.40677 5.70682 4.40667C6.00277 4.40647 6.29861 4.40618 6.59446 4.40569C6.82872 4.4054 7.06288 4.40511 7.29704 4.40501C7.4211 4.40501 7.54515 4.40491 7.66921 4.40462C7.80752 4.40433 7.94583 4.40433 8.08404 4.40433C8.12553 4.40423 8.16691 4.40413 8.20957 4.40394C8.26579 4.40403 8.26579 4.40403 8.32308 4.40413C8.35588 4.40403 8.38858 4.40403 8.42235 4.40403C8.49614 4.40842 8.49614 4.40843 8.53235 4.44454C8.53577 4.49666 8.53674 4.54898 8.53665 4.6012C8.53674 4.65176 8.53674 4.65176 8.53684 4.70339C8.53665 4.74087 8.53655 4.77826 8.53645 4.81691C8.53645 4.85664 8.53645 4.89636 8.53645 4.93736C8.53635 5.06679 8.53616 5.19612 8.53587 5.32554C8.53577 5.40509 8.53577 5.48474 8.53577 5.56439C8.53557 5.86033 8.53499 6.15637 8.5346 6.45232C8.53382 7.11341 8.53303 7.7745 8.53235 8.45561C7.0537 8.45561 5.57505 8.45561 4.0516 8.45561C4.04467 9.60493 4.04467 9.60493 4.21646 10.7366C4.22593 10.7724 4.23539 10.8081 4.24516 10.845C4.33954 11.1856 4.46907 11.5018 4.62973 11.8161C4.64154 11.8394 4.65335 11.8626 4.66555 11.8865C4.82484 12.1933 5.01615 12.4599 5.24397 12.7195C5.26739 12.7477 5.29082 12.7759 5.31483 12.8049C6.16557 13.8101 7.34935 14.2024 8.60458 14.3817C8.60458 15.7173 8.60458 17.0528 8.60458 18.4289C8.30903 18.4289 8.03582 18.4272 7.74632 18.3882C7.71118 18.3835 7.67604 18.3787 7.63993 18.374C5.85753 18.1174 4.27922 17.3299 2.93136 16.1523C2.89818 16.1236 2.86499 16.0949 2.83083 16.0654C2.66919 15.9231 2.51975 15.778 2.38105 15.6133C2.30921 15.5288 2.23416 15.4479 2.159 15.3664C0.757165 13.8081 -0.0057329 11.6619 0.00012353 9.57721C2.59228e-05 9.53602 2.59764e-05 9.49473 2.59764e-05 9.45227C-7.16307e-05 9.31533 0.000123423 9.17829 0.000318637 9.04135C0.000318637 8.94267 0.000318637 8.84399 0.000318637 8.7453C0.000318637 8.5335 0.000416083 8.32169 0.000611297 8.10988C0.000904119 7.80359 0.00100226 7.4973 0.00100226 7.19111C0.00109986 6.69409 0.00139231 6.19717 0.00168513 5.70016C0.00207556 5.21769 0.00227109 4.73512 0.0024663 4.25264C0.0024663 4.22287 0.0024663 4.1931 0.0024663 4.16236C0.0024663 4.01292 0.00256386 3.86348 0.00256386 3.71405C0.00295429 2.476 0.00363726 1.23805 0.00441812 0Z" fill="#499BE5"></path></g></svg>