<svg xmlns:xlink="http://www.w3.org/1999/xlink" xmlns="http://www.w3.org/2000/svg" width="365" height="95" viewBox="0 0 365 95" fill="none">
<path fill-rule="evenodd" clip-rule="evenodd" d="M38.899 40.4481C38.899 38.4807 39.6784 36.6953 40.9453 35.3839C42.2785 33.9208 44.1994 33.0026 46.3349 33.0026H68.2016V33.0023H60.9141C64.2615 33.0023 67.082 30.7459 67.9376 27.6712C58.2487 20.7527 44.7007 21.6419 36.0038 30.3388C27.3492 38.9934 26.4265 52.452 33.2359 62.131C36.4748 61.3889 38.8908 58.4893 38.8908 55.0254L38.8908 33.1585L38.899 33.1585V40.4481ZM38.8869 67.8962C38.8883 67.8972 38.8898 67.8982 38.8912 67.8993V62.3169H38.8869V67.8962ZM39.0629 68.0242C48.7576 75.0113 62.3615 74.1431 71.0849 65.4198C79.8512 56.6535 80.6847 42.9584 73.5853 33.2548C70.5049 34.0878 68.2332 36.8894 68.2037 40.2263V54.8711C68.2037 56.9321 67.3483 58.7934 65.9732 60.1192C64.6495 61.4751 62.8015 62.3169 60.7569 62.3169H46.0042C42.5994 62.3978 39.7725 64.8133 39.0629 68.0242Z" fill="#004BFF"/>
<path d="M109.617 36.8835V66.5635H101.667V36.8835H92.1273V29.4635H119.21V36.8835H109.617Z" fill="#004BFF"/>
<path d="M132.522 67.4115C130.155 67.4115 128 67.0935 126.056 66.4575C124.148 65.7861 122.523 64.8498 121.18 63.6485C119.838 62.4118 118.795 60.9278 118.053 59.1965C117.311 57.4651 116.94 55.5041 116.94 53.3135C116.94 51.1228 117.311 49.1618 118.053 47.4305C118.795 45.6991 119.838 44.2328 121.18 43.0315C122.523 41.7948 124.148 40.8585 126.056 40.2225C128 39.5865 130.155 39.2685 132.522 39.2685C134.89 39.2685 137.027 39.6218 138.935 40.3285C140.879 40.9998 142.522 41.9538 143.864 43.1905C145.207 44.4271 146.249 45.9111 146.991 47.6425C147.733 49.3385 148.104 51.2288 148.104 53.3135C148.104 55.3981 147.733 57.3061 146.991 59.0375C146.249 60.7688 145.207 62.2528 143.864 63.4895C142.522 64.7261 140.879 65.6978 138.935 66.4045C137.027 67.0758 134.89 67.4115 132.522 67.4115ZM124.89 53.3135C124.89 54.2675 125.014 55.1861 125.261 56.0695C125.544 56.9175 125.986 57.6771 126.586 58.3485C127.187 59.0198 127.964 59.5498 128.918 59.9385C129.908 60.3271 131.109 60.5215 132.522 60.5215C133.936 60.5215 135.119 60.3271 136.073 59.9385C137.063 59.5498 137.858 59.0198 138.458 58.3485C139.059 57.6771 139.483 56.9175 139.73 56.0695C140.013 55.1861 140.154 54.2675 140.154 53.3135C140.154 52.3595 140.013 51.4585 139.73 50.6105C139.483 49.7271 139.059 48.9675 138.458 48.3315C137.858 47.6601 137.063 47.1301 136.073 46.7415C135.119 46.3528 133.936 46.1585 132.522 46.1585C131.109 46.1585 129.908 46.3528 128.918 46.7415C127.964 47.1301 127.187 47.6601 126.586 48.3315C125.986 48.9675 125.544 49.7271 125.261 50.6105C125.014 51.4585 124.89 52.3595 124.89 53.3135Z" fill="#004BFF"/>
<path d="M151.606 28.1385H159.026V44.8335C159.026 45.9641 158.796 47.1301 158.337 48.3315C157.877 49.4975 157.418 50.5751 156.959 51.5645L158.125 52.1475C158.584 51.1228 159.096 50.0451 159.662 48.9145C160.262 47.7485 160.987 46.8121 161.835 46.1055L168.619 40.1165H177.629L166.499 50.3455L180.332 66.6165H171.269L161.517 54.5325L158.92 56.7585L159.026 66.5635H151.606V28.1385Z" fill="#004BFF"/>
<path d="M179.538 53.3665C179.538 51.3525 179.873 49.4798 180.545 47.7485C181.216 46.0171 182.188 44.5331 183.46 43.2965C184.732 42.0245 186.269 41.0351 188.071 40.3285C189.908 39.6218 191.993 39.2685 194.325 39.2685C196.763 39.2685 198.918 39.6571 200.791 40.4345C202.663 41.1765 204.236 42.1835 205.508 43.4555C206.815 44.6921 207.787 46.1408 208.423 47.8015C209.094 49.4268 209.412 51.1228 209.377 52.8895C209.377 53.2781 209.377 53.7551 209.377 54.3205C209.412 54.8505 209.412 55.2215 209.377 55.4335H187.329C187.329 56.1048 187.47 56.7585 187.753 57.3945C188.071 57.9951 188.53 58.5428 189.131 59.0375C189.731 59.5321 190.491 59.9385 191.41 60.2565C192.328 60.5391 193.406 60.6805 194.643 60.6805C196.339 60.6805 197.681 60.4331 198.671 59.9385C199.66 59.4438 200.296 58.9491 200.579 58.4545H209.695C209.483 59.1258 209.023 59.9738 208.317 60.9985C207.645 62.0231 206.691 63.0125 205.455 63.9665C204.218 64.9205 202.681 65.7331 200.844 66.4045C199.042 67.0758 196.904 67.4115 194.431 67.4115C191.957 67.4115 189.784 67.0405 187.912 66.2985C186.039 65.5565 184.484 64.5495 183.248 63.2775C182.011 62.0055 181.075 60.5215 180.439 58.8255C179.838 57.0941 179.538 55.2745 179.538 53.3665ZM194.007 45.9995C191.781 45.9995 190.102 46.4235 188.972 47.2715C187.876 48.0841 187.329 49.2678 187.329 50.8225H201.162C201.162 49.1265 200.473 47.9075 199.095 47.1655C197.717 46.3881 196.021 45.9995 194.007 45.9995Z" fill="#004BFF"/>
<path d="M212.716 40.0635H220.136V40.3815C220.136 41.5475 219.907 42.7841 219.447 44.0915C218.988 45.3635 218.546 46.5648 218.122 47.6955L219.341 48.1725C219.553 47.6071 219.765 47.0065 219.977 46.3705C220.189 45.7345 220.419 45.1161 220.666 44.5155C220.949 43.8795 221.249 43.2965 221.567 42.7665C221.921 42.2011 222.327 41.7418 222.786 41.3885C223.846 40.5758 224.995 40.0281 226.231 39.7455C227.468 39.4275 228.917 39.2685 230.577 39.2685C231.92 39.2685 233.157 39.4628 234.287 39.8515C235.453 40.2401 236.46 40.8231 237.308 41.6005C238.156 42.3425 238.828 43.2788 239.322 44.4095C239.817 45.5401 240.064 46.8651 240.064 48.3845V66.5635H232.644V53.7375C232.644 51.2995 232.203 49.5328 231.319 48.4375C230.471 47.3068 229.146 46.7415 227.344 46.7415C226.39 46.7415 225.472 46.8828 224.588 47.1655C223.705 47.4481 222.928 47.8721 222.256 48.4375C221.62 49.0028 221.108 49.7271 220.719 50.6105C220.331 51.4938 220.136 52.5361 220.136 53.7375V66.5635H212.716V40.0635Z" fill="#004BFF"/>
<path d="M262.641 67.4115C252.412 67.4115 245.151 59.0375 245.151 48.0135C245.151 36.9895 252.412 28.6685 262.641 28.6685C272.87 28.6685 280.131 36.9895 280.131 48.0135C280.131 59.0375 272.87 67.4115 262.641 67.4115ZM249.126 48.0135C249.126 56.1755 254.479 63.6485 262.641 63.6485C270.803 63.6485 276.156 56.1755 276.156 48.0135C276.156 39.8515 270.803 32.4845 262.641 32.4845C254.479 32.4845 249.126 39.8515 249.126 48.0135Z" fill="#004BFF"/>
<path d="M287.934 79.8135H284.224V40.0635H287.934V41.9715C287.934 43.5615 287.245 45.4695 286.715 47.0065L287.457 47.2185C287.987 45.7345 288.411 43.6145 289.524 42.5015C291.538 40.4875 294.294 39.2685 297.898 39.2685C305.848 39.2685 310.989 45.2575 310.989 53.1545C310.989 61.0515 305.848 67.4115 297.898 67.4115C294.294 67.4115 291.485 66.1395 289.524 63.9665C288.411 62.8005 287.987 60.6805 287.51 59.1965L286.715 59.4615C287.245 60.9455 287.934 62.9065 287.934 64.4965V79.8135ZM297.898 42.8195C291.326 42.8195 287.934 47.3245 287.934 53.1545C287.934 58.9845 291.326 63.8605 297.898 63.8605C304.417 63.8605 307.279 58.9845 307.279 53.1545C307.279 47.3245 304.417 42.8195 297.898 42.8195ZM313.698 59.2495H317.408C317.408 61.6345 320.164 63.5955 325.04 63.5955C329.174 63.5955 332.354 62.2175 332.354 59.4615C332.354 56.9175 329.598 56.0165 325.093 54.6385C318.892 52.7305 314.228 51.1935 314.228 46.2115C314.228 42.1305 317.408 39.5335 324.351 39.5335C332.195 39.5335 335.269 42.8725 335.269 46.7945H331.559C331.559 44.2505 328.909 43.0315 324.457 43.0315C319.952 43.0315 317.938 44.1975 317.938 46.1585C317.938 48.9145 321.648 49.6565 325.782 50.8755C331.718 52.6775 336.011 54.6385 336.064 59.4085C336.117 63.8075 332.513 67.0935 325.623 67.0935C318.309 67.0935 313.698 64.0195 313.698 59.2495Z" fill="#004BFF"/>
</svg>