<svg xmlns:xlink="http://www.w3.org/1999/xlink" viewBox="0 0 50 50" fill="none" xmlns="http://www.w3.org/2000/svg" class="absolute inset-0 size-full rounded-full object-cover" width="50"  height="50" ><path d="M50 25C50 38.8071 38.8071 50 25 50C11.1929 50 0 38.8071 0 25C0 11.1929 11.1929 0 25 0C38.8071 0 50 11.1929 50 25Z" fill="#50AF95"></path><g transform="translate(7 10)" fill="none"><path fill-rule="evenodd" clip-rule="evenodd" d="M21.3404 17.7075C21.1389 17.7228 20.0977 17.7854 17.7752 17.7854C15.928 17.7854 14.6165 17.7295 14.1564 17.7075C7.01774 17.3909 1.68936 16.1378 1.68936 14.6375C1.68936 13.1371 7.01774 11.8857 14.1564 11.564V16.4595C14.6232 16.4934 15.9599 16.573 17.8071 16.573C20.0238 16.573 21.1338 16.4798 21.3336 16.4612V11.5674C28.4572 11.8874 33.7738 13.1405 33.7738 14.6375C33.7738 16.1344 28.4589 17.3875 21.3336 17.7058L21.3404 17.7075ZM21.3404 11.0611V6.68033H31.2817V0H4.21501V6.68033H14.1547V11.0594C6.07566 11.4336 0 13.0474 0 14.9812C0 16.915 6.07566 18.5271 14.1547 18.903V32.941H21.3387V18.898C29.3993 18.5237 35.4648 16.9116 35.4648 14.9795C35.4648 13.0474 29.4043 11.4353 21.3387 11.0594L21.3404 11.0611Z" fill="#FFFFFF"></path></g></svg>