<svg xmlns:xlink="http://www.w3.org/1999/xlink" viewBox="0 0 50 50" fill="none" xmlns="http://www.w3.org/2000/svg" class="absolute inset-0 size-full rounded-full object-cover" width="50"  height="50" ><path d="M25 50C38.8542 50 50 38.8542 50 25C50 11.1458 38.8542 0 25 0C11.1458 0 0 11.1458 0 25C0 38.8542 11.1458 50 25 50Z" fill="#2775CA"></path><g transform="translate(17.915 12.71)" fill="none"><path d="M13.9583 16.25C13.9583 12.6042 11.7708 11.3542 7.39575 10.8335C4.27075 10.4167 3.64575 9.5835 3.64575 8.125C3.64575 6.6665 4.6875 5.72925 6.77075 5.72925C8.64575 5.72925 9.6875 6.35425 10.2083 7.91675C10.3125 8.22925 10.625 8.4375 10.9375 8.4375H12.604C13.0207 8.4375 13.3333 8.125 13.3333 7.7085V7.60425C12.9165 5.3125 11.0415 3.54175 8.64575 3.3335V0.8335C8.64575 0.41675 8.33325 0.10425 7.8125 0H6.25C5.83325 0 5.52075 0.3125 5.4165 0.8335V3.22925C2.2915 3.646 0.3125 5.72925 0.3125 8.3335C0.3125 11.771 2.39575 13.125 6.77075 13.646C9.6875 14.1668 10.625 14.7918 10.625 16.4585C10.625 18.1253 9.1665 19.271 7.1875 19.271C4.479 19.271 3.5415 18.125 3.229 16.5625C3.125 16.146 2.8125 15.9375 2.5 15.9375H0.729001C0.312501 15.9375 0 16.25 0 16.6668V16.771C0.4165 19.375 2.08325 21.25 5.52075 21.771V24.271C5.52075 24.6875 5.83325 25 6.354 25.1043H7.9165C8.33325 25.1043 8.64575 24.7918 8.75 24.271V21.771C11.875 21.25 13.9583 19.0625 13.9583 16.25Z" fill="#FFFFFF"></path></g><g transform="translate(6.2 7.29)" fill="none"><path d="M13.4884 32.604C5.36336 29.6875 1.19661 20.625 4.21761 12.604C5.78011 8.229 9.21761 4.89575 13.4884 3.33325C13.9051 3.125 14.1134 2.8125 14.1134 2.2915V0.83325C14.1134 0.4165 13.9051 0.104 13.4884 0C13.3841 0 13.1759 0 13.0716 0.103999C3.17586 3.229 -2.24089 13.75 0.884109 23.6457C2.75911 29.479 7.23836 33.9582 13.0716 35.8332C13.4884 36.0415 13.9051 35.8332 14.0091 35.4165C14.1134 35.3125 14.1134 35.2082 14.1134 35V33.5415C14.1134 33.229 13.8009 32.8125 13.4884 32.604ZM24.5301 0.103999C24.1134 -0.104251 23.6966 0.104 23.5926 0.52075C23.4884 0.625 23.4884 0.729 23.4884 0.9375V2.39575C23.4884 2.8125 23.8009 3.229 24.1134 3.4375C32.2384 6.354 36.4051 15.4165 33.3841 23.4375C31.8216 27.8125 28.3841 31.1457 24.1134 32.7082C23.6966 32.9165 23.4884 33.229 23.4884 33.75V35.2082C23.4884 35.625 23.6966 35.9375 24.1134 36.0415C24.2176 36.0415 24.4259 36.0415 24.5301 35.9375C34.4259 32.8125 39.8426 22.2915 36.7176 12.3957C34.8426 6.45825 30.2591 1.979 24.5301 0.103999Z" fill="#FFFFFF"></path></g></svg>