<svg xmlns:xlink="http://www.w3.org/1999/xlink" viewBox="0 0 51.492 50" fill="none" xmlns="http://www.w3.org/2000/svg" class="absolute inset-0 size-full rounded-full object-cover" width="51.492"  height="50" ><path d="M49.9996 23.9609C49.9996 36.704 38.7134 49.2529 25.8926 49.2529C13.0718 49.2529 0 35.8166 0 23.0734C0 10.3303 10.3933 0 23.2141 0C36.0349 0 49.9996 11.2178 49.9996 23.9609Z" fill="#F61F7D"></path><path fill-rule="evenodd" clip-rule="evenodd" d="M41.0158 39.7568C45.0873 35.4037 47.6187 29.6446 47.6187 23.9609C47.6187 18.4748 44.5945 13.094 39.8597 9.00649C35.1292 4.92283 28.9687 2.38321 23.2141 2.38321C11.6925 2.38321 2.38094 11.6623 2.38094 23.0734C2.38094 28.6623 5.27912 34.6376 9.83523 39.2699C14.3913 43.9021 20.2877 46.8697 25.8926 46.8697C31.5167 46.8697 36.9464 44.1076 41.0158 39.7568ZM25.8926 49.2529C38.7134 49.2529 49.9996 36.704 49.9996 23.9609C49.9996 11.2178 36.0349 0 23.2141 0C10.3933 0 0 10.3303 0 23.0734C0 35.8166 13.0718 49.2529 25.8926 49.2529Z" fill="black"></path><g transform="translate(4.48 2.985)" fill="none"><path d="M47.0146 23.5071C47.0146 36.4897 36.49 47.0141 23.5073 47.0141C10.5245 47.0141 0 36.4897 0 23.5071C0 10.5245 10.5245 0 23.5073 0C36.49 0 47.0146 10.5245 47.0146 23.5071Z" fill="#FFFFFF"></path><path fill-rule="evenodd" clip-rule="evenodd" d="M23.5073 44.6236C35.1697 44.6236 44.624 35.1694 44.624 23.5071C44.624 11.8447 35.1697 2.39055 23.5073 2.39055C11.8448 2.39055 2.39058 11.8447 2.39058 23.5071C2.39058 35.1694 11.8448 44.6236 23.5073 44.6236ZM23.5073 47.0141C36.49 47.0141 47.0146 36.4897 47.0146 23.5071C47.0146 10.5245 36.49 0 23.5073 0C10.5245 0 0 10.5245 0 23.5071C0 36.4897 10.5245 47.0141 23.5073 47.0141Z" fill="black"></path></g><g transform="translate(0.747 17.165)" fill="none"><path fill-rule="evenodd" clip-rule="evenodd" d="M5.0878 5.97005L0 1.88355L1.62856 0L6.71637 4.0865L5.0878 5.97005Z" fill="black"></path></g><g transform="translate(11.941 21.64)" fill="none"><path d="M0 0H2.15648L2.83752 6.5228L3.70296 0.0138053H5.39123L6.29928 6.48138L6.99442 0H9.12262L7.74636 11.1938H5.53317L4.55422 4.43604L3.63199 11.1938H1.39036L0 0Z" fill="black"></path></g><g transform="translate(23.022 21.64)" fill="none"><path d="M0 0H5.16422V1.68602H2.53953V4.46373H4.53997V6.17736H2.53953V9.5217H5.19265V11.1938H0V0Z" fill="black"></path></g><g transform="translate(29.36 21.64)" fill="none"><path d="M1.75924 1.83803H0V0H6.05809V1.83803H4.31303V11.1938H1.75924V1.83803Z" fill="black"></path></g><g transform="translate(37.167 21.64)" fill="none"><path d="M0 0H2.53953V4.53283H4.31295V0H6.86674V11.1938H4.31295V6.30168H2.53953V11.1938H0V0Z" fill="black"></path></g><g transform="translate(5.221 39.55)" fill="none"><path d="M31.343 5.22379C31.343 7.28137 28.4854 9.59596 23.9682 10.4476C22.1245 10.4476 21.226 10.4476 18.3236 10.4476C8.20374 10.4476 0 8.10882 0 5.22379C0 2.33877 8.20374 0 18.3236 0C28.4435 0 31.343 2.33877 31.343 5.22379Z" fill="black"></path></g></svg>