<svg xmlns:xlink="http://www.w3.org/1999/xlink" viewBox="0 0 50 50" fill="none" xmlns="http://www.w3.org/2000/svg" class="absolute inset-0 size-full rounded-full object-cover" width="50"  height="50" ><defs><linearGradient id="xaut-gradient" x1="0" y1="25" x2="50" y2="25" gradientUnits="userSpaceOnUse"><stop stop-color="#D8B35D"></stop><stop offset="1" stop-color="#F5E7BF"></stop></linearGradient><linearGradient id="xaut-gradient" x1="0" y1="25" x2="50" y2="25" gradientUnits="userSpaceOnUse"><stop stop-color="#D8B35D"></stop><stop offset="1" stop-color="#F5E7BF"></stop></linearGradient></defs><circle cx="25" cy="25" r="25" fill="url(&quot;#xaut-gradient&quot;)"></circle><g transform="translate(7.005 9)" fill="none"><path fill-rule="evenodd" clip-rule="evenodd" d="M21.3568 17.7122C21.1555 17.7291 20.1137 17.7967 17.7942 17.7967C15.9463 17.7967 14.6352 17.746 14.1646 17.7122C7.02357 17.391 1.69695 16.1373 1.69695 14.647C1.69695 13.1567 7.02357 11.887 14.1646 11.5658V16.4594C14.6305 16.4932 15.9631 16.5778 17.811 16.5778C20.0289 16.5778 21.1378 16.4763 21.34 16.4594V11.5658C28.4642 11.887 33.7908 13.1407 33.7908 14.6301C33.7908 16.1195 28.4791 17.391 21.3568 17.7122ZM21.3568 11.0747V6.6882H31.3046V0H4.21768V6.6882H14.1646V11.0747C6.08237 11.4503 0 13.0552 0 15.0029C0 16.9506 6.08237 18.5423 14.1646 18.9311V32.9696H21.3568V18.9311C29.4222 18.5555 35.4887 16.9496 35.4887 15.0198C35.4887 13.09 29.4222 11.4466 21.3568 11.0756V11.0747Z" fill="#FFFFFF"></path></g></svg>